Coordinates
version=1
nRows=29
nColumns=22
inDegrees=yes

Units are S.I. units (second, meters, Newtons, ...)
If the header above contains a line with 'inDegrees', this indicates whether rotational values are in degrees (yes) or radians (no).

endheader
time	pelvis_tilt	pelvis_list	pelvis_rotation	pelvis_tx	pelvis_ty	pelvis_tz	hip_flexion_r	hip_adduction_r	hip_rotation_r	knee_angle_r	ankle_angle_r	subtalar_angle_r	hip_flexion_l	hip_adduction_l	hip_rotation_l	knee_angle_l	ankle_angle_l	subtalar_angle_l	lumbar_extension	lumbar_bending	lumbar_rotation
      0.01000000	     -4.58515484	     -7.14295430	      1.53898439	     -1.04048809	      0.97669754	      0.03254838	      5.61194561	      8.10599189	     -4.36705593	    -13.37110866	      9.91627918	     -0.47709359	      3.94019517	     -8.49372429	      5.35991941	     -8.11216925	     11.40049452	     -0.87083175	      5.08620455	      6.05235489	     -9.16681765
      0.02000000	     -4.58967926	     -7.15583481	      1.53241843	     -1.04048689	      0.97668871	      0.03255543	      5.62006820	      8.12060245	     -4.34513028	    -13.37426291	      9.90232529	     -0.45258000	      3.93989804	     -8.50801768	      5.37154894	     -8.10605941	     11.40936905	     -0.86458960	      5.09452361	      6.05773308	     -9.10832726
      0.03000000	     -4.58670802	     -7.15949410	      1.54107798	     -1.04045995	      0.97668369	      0.03254501	      5.61894577	      8.12373637	     -4.34164237	    -13.37839249	      9.90183551	     -0.45029416	      3.93769233	     -8.51186712	      5.36964071	     -8.10679403	     11.40977152	     -0.86430753	      5.10152208	      6.04967080	     -9.10212023
      0.04000000	     -4.58902677	     -7.16814069	      1.52203135	     -1.04046095	      0.97667349	      0.03257529	      5.63148536	      8.13439207	     -4.30703109	    -13.39622315	      9.90544067	     -0.39041992	      3.92925943	     -8.52359254	      5.35458901	     -8.09430150	     11.42294240	     -0.85586304	      5.10616912	      6.04624597	     -9.02544347
      0.05000000	     -4.58553222	     -7.17250432	      1.53700268	     -1.04045688	      0.97666775	      0.03256334	      5.62858161	      8.13839915	     -4.30881892	    -13.39522661	      9.90831801	     -0.38461103	      3.93174121	     -8.52774127	      5.35803754	     -8.09761993	     11.42178813	     -0.85497312	      5.10908510	      6.03282726	     -8.99909192
      0.06000000	     -4.58145177	     -7.17681960	      1.54089380	     -1.04043618	      0.97666174	      0.03256044	      5.62692895	      8.14199161	     -4.31297814	    -13.40132324	      9.91183558	     -0.37432969	      3.92834519	     -8.53194731	      5.37150945	     -8.10174064	     11.42439608	     -0.85348349	      5.11507203	      6.02038813	     -8.95274769
      0.07000000	     -4.57852049	     -7.18037490	      1.54499138	     -1.04042225	      0.97665426	      0.03256256	      5.62933254	      8.14553681	     -4.31282885	    -13.41188925	      9.91567212	     -0.36310831	      3.92270979	     -8.53623752	      5.37911329	     -8.09776722	     11.42880373	     -0.85215467	      5.11944296	      6.00548791	     -8.91179983
      0.08000000	     -4.57534501	     -7.18430809	      1.55671478	     -1.04042038	      0.97664921	      0.03255942	      5.62996982	      8.14967976	     -4.31113108	    -13.41768954	      9.91751371	     -0.35876363	      3.92101865	     -8.54105444	      5.37934865	     -8.09379476	     11.43052265	     -0.85170726	      5.12344442	      5.98986680	     -8.89200626
      0.09000000	     -4.57269537	     -7.18575546	      1.55811805	     -1.04039571	      0.97664187	      0.03255919	      5.63060400	      8.15015263	     -4.31479025	    -13.42676779	      9.92354584	     -0.34965424	      3.91282488	     -8.54299734	      5.38641285	     -8.08762140	     11.43419312	     -0.84986348	      5.13079184	      5.97404433	     -8.85060050
      0.10000000	     -4.56927763	     -7.18973197	      1.56900011	     -1.04037845	      0.97663681	      0.03255440	      5.62924147	      8.15390638	     -4.31275338	    -13.43205581	      9.92362621	     -0.34856786	      3.91040611	     -8.54786963	      5.38430286	     -8.08640621	     11.43452612	     -0.84981740	      5.13772898	      5.96009822	     -8.84487912
      0.11000000	     -4.56806809	     -7.18737921	      1.57608452	     -1.04036500	      0.97663093	      0.03254457	      5.63270843	      8.14928020	     -4.32485886	    -13.44117763	      9.93247053	     -0.33931647	      3.89961666	     -8.54577224	      5.38644471	     -8.06744449	     11.43570660	     -0.84667304	      5.14448683	      5.94076851	     -8.80865224
      0.12000000	     -4.56485726	     -7.19052366	      1.58836074	     -1.04035946	      0.97662791	      0.03253761	      5.63225338	      8.15188927	     -4.32296614	    -13.44632931	      9.93265991	     -0.33822488	      3.89770413	     -8.55010503	      5.38370549	     -8.06489959	     11.43533904	     -0.84650347	      5.14984579	      5.92780656	     -8.80479998
      0.13000000	     -4.56226182	     -7.19310155	      1.60226484	     -1.04035948	      0.97662500	      0.03252823	      5.63294622	      8.15369300	     -4.32302552	    -13.45092915	      9.93345755	     -0.33699414	      3.89586755	     -8.55373566	      5.38117949	     -8.05998074	     11.43482663	     -0.84620038	      5.15430926	      5.91493384	     -8.79926436
      0.14000000	     -4.55977811	     -7.19494163	      1.61560943	     -1.04035494	      0.97662253	      0.03251737	      5.63379106	      8.15433296	     -4.32499282	    -13.45591232	      9.93491842	     -0.33562403	      3.89320665	     -8.55643401	      5.38011573	     -8.05454633	     11.43377191	     -0.84573780	      5.15933198	      5.90254141	     -8.79331218
      0.15000000	     -4.55653474	     -7.17477809	      1.63285945	     -1.04033477	      0.97662181	      0.03247796	      5.64504964	      8.12517765	     -4.37475990	    -13.48255939	      9.96165376	     -0.31919269	      3.87034499	     -8.53371337	      5.41425070	     -8.01820374	     11.41274083	     -0.83834977	      5.16442109	      5.86795008	     -8.77552928
      0.16000000	     -4.55288087	     -7.17666451	      1.64581016	     -1.04032150	      0.97662207	      0.03246229	      5.64438735	      8.12571624	     -4.37144245	    -13.48770408	      9.96234017	     -0.31778922	      3.86900799	     -8.53613213	      5.41432515	     -8.01910881	     11.41162897	     -0.83839059	      5.16788890	      5.85854713	     -8.77526514
      0.17000000	     -4.54058414	     -7.15861741	      1.68474115	     -1.04032629	      0.97662673	      0.03239721	      5.64071260	      8.09976128	     -4.40287911	    -13.50160741	      9.99280940	     -0.28766961	      3.86472465	     -8.51286435	      5.46764963	     -8.02206283	     11.39946898	     -0.83932921	      5.15859425	      5.82613712	     -8.80441154
      0.18000000	     -4.53703372	     -7.16107583	      1.69618572	     -1.04030101	      0.97662562	      0.03236773	      5.63988144	      8.10010252	     -4.40013362	    -13.50766589	      9.99226426	     -0.28641315	      3.86274391	     -8.51436792	      5.46850251	     -8.02353062	     11.39914863	     -0.83957183	      5.16309665	      5.82193090	     -8.80254118
      0.19000000	     -4.52449731	     -7.15626224	      1.73764255	     -1.04031684	      0.97662873	      0.03228758	      5.64057134	      8.08752946	     -4.43599468	    -13.52786390	     10.01104198	     -0.25523858	      3.86105511	     -8.50397548	      5.52536971	     -8.02742282	     11.39856822	     -0.84510183	      5.15119486	      5.80732902	     -8.83082153
      0.20000000	     -4.52169193	     -7.15818825	      1.75023675	     -1.04029966	      0.97662736	      0.03224499	      5.64080979	      8.08667928	     -4.43285160	    -13.53346938	     10.01021392	     -0.25412201	      3.85991065	     -8.50447324	      5.52461873	     -8.02685481	     11.39825704	     -0.84535420	      5.15392667	      5.80542202	     -8.83055062
      0.21000000	     -4.51194736	     -7.15460246	      1.77744504	     -1.04033008	      0.97663299	      0.03216742	      5.64944143	      8.07683867	     -4.44422891	    -13.56213075	     10.01298304	     -0.24058837	      3.85538384	     -8.49615824	      5.54986430	     -8.02237938	     11.39342278	     -0.84622733	      5.14113314	      5.79849617	     -8.86405322
      0.22000000	     -4.51102457	     -7.15607883	      1.79383287	     -1.04033562	      0.97663061	      0.03210269	      5.65111297	      8.07437881	     -4.44394324	    -13.56385676	     10.01368889	     -0.23957872	      3.85664671	     -8.49470431	      5.54796659	     -8.01720537	     11.39352834	     -0.84640100	      5.14038813	      5.79839228	     -8.86260269
      0.23000000	     -4.50573125	     -7.14491712	      1.83058948	     -1.04034582	      0.97663215	      0.03199949	      5.65987636	      8.05294407	     -4.49069031	    -13.58612364	     10.02724173	     -0.22443738	      3.84646377	     -8.47743883	      5.57642307	     -7.99126196	     11.38344732	     -0.84519671	      5.13518530	      5.78337669	     -8.91516831
      0.24000000	     -4.50549430	     -7.14629258	      1.84345887	     -1.04036417	      0.97663148	      0.03193063	      5.66198670	      8.05022103	     -4.49037516	    -13.58633209	     10.02785777	     -0.22373329	      3.84885747	     -8.47516084	      5.57588324	     -7.98745761	     11.38297722	     -0.84522715	      5.13161976	      5.78517360	     -8.91270401
      0.25000000	     -4.50559723	     -7.14690326	      1.85459282	     -1.04038574	      0.97663213	      0.03186476	      5.66446769	      8.04729923	     -4.49151350	    -13.58768592	     10.02841782	     -0.22302441	      3.85101884	     -8.47207015	      5.57617006	     -7.98282549	     11.38217696	     -0.84517704	      5.12678192	      5.78694607	     -8.91322570
      0.26000000	     -4.49608880	     -7.13219065	      1.89128705	     -1.04041955	      0.97664141	      0.03175816	      5.67346300	      8.02090421	     -4.55773270	    -13.61683927	     10.04019349	     -0.21097563	      3.84461321	     -8.45011846	      5.63175924	     -7.97312556	     11.35916568	     -0.84406148	      5.11024933	      5.77035902	     -8.96495745
      0.27000000	     -4.49777640	     -7.13283991	      1.89639749	     -1.04043089	      0.97664243	      0.03170267	      5.67435480	      8.01886473	     -4.55899627	    -13.61512860	     10.04089892	     -0.21056489	      3.84695144	     -8.44779400	      5.63272389	     -7.97129097	     11.35921738	     -0.84437134	      5.10671065	      5.77317602	     -8.96346185
      0.28000000	     -4.49552420	     -7.13010575	      1.91462793	     -1.04046485	      0.97664789	      0.03163392	      5.67704867	      8.01061869	     -4.59060574	    -13.62017029	     10.04195853	     -0.20447812	      3.85534432	     -8.44030642	      5.66950901	     -7.98250843	     11.35222136	     -0.84949338	      5.09527293	      5.76960037	     -8.96936975
      0.29000000	     -4.49803633	     -7.12993301	      1.91191020	     -1.04047876	      0.97665070	      0.03157731	      5.67885511	      8.00708620	     -4.59270200	    -13.61853562	     10.04200133	     -0.20425394	      3.85663343	     -8.43668827	      5.67123638	     -7.98181388	     11.35201276	     -0.84987374	      5.09027407	      5.77613178	     -8.97156139
